<?xml version="1.0" encoding="UTF-8"?>
<svg xmlns="http://www.w3.org/2000/svg" xmlns:xlink="http://www.w3.org/1999/xlink" width="600px" height="338px" viewBox="0 0 600 338" version="1.1">
<g id="surface1">
<path style=" stroke:none;fill-rule:nonzero;fill:rgb(1.960784%,1.960784%,1.960784%);fill-opacity:1;" d="M 385.585938 64.894531 L 387.386719 64.894531 L 387.386719 65.796875 L 389.1875 65.796875 L 389.1875 66.699219 L 390.089844 66.699219 L 390.089844 67.601562 L 391.890625 67.601562 L 391.890625 68.5 L 393.695312 68.5 L 393.695312 69.402344 L 394.59375 69.402344 L 394.59375 70.304688 L 396.394531 70.304688 L 396.394531 71.207031 L 398.199219 71.207031 L 398.199219 72.105469 L 399.097656 72.105469 L 399.097656 73.007812 L 400.902344 73.007812 L 400.902344 73.910156 L 401.800781 73.910156 L 401.800781 74.8125 L 403.605469 74.8125 L 403.605469 75.710938 L 405.40625 75.710938 L 405.40625 76.613281 L 406.304688 76.613281 L 406.304688 77.515625 L 408.109375 77.515625 L 408.109375 78.414062 L 409.007812 78.414062 L 409.007812 79.316406 L 410.8125 79.316406 L 410.8125 80.21875 L 412.613281 80.21875 L 412.613281 81.121094 L 413.511719 81.121094 L 413.511719 82.019531 L 415.316406 82.019531 L 415.316406 82.921875 L 417.117188 82.921875 L 417.117188 83.824219 L 418.019531 83.824219 L 418.019531 84.726562 L 419.820312 84.726562 L 419.820312 85.625 L 421.621094 85.625 L 421.621094 86.527344 L 422.523438 86.527344 L 422.523438 87.429688 L 424.324219 87.429688 L 424.324219 88.332031 L 426.125 88.332031 L 426.125 89.230469 L 427.027344 89.230469 L 427.027344 90.132812 L 428.828125 90.132812 L 428.828125 91.035156 L 429.730469 91.035156 L 429.730469 91.9375 L 431.53125 91.9375 L 431.53125 92.835938 L 433.332031 92.835938 L 433.332031 93.738281 L 434.234375 93.738281 L 434.234375 94.640625 L 436.035156 94.640625 L 436.035156 95.542969 L 437.835938 95.542969 L 437.835938 96.441406 L 438.738281 96.441406 L 438.738281 97.34375 L 440.539062 97.34375 L 440.539062 98.246094 L 441.441406 98.246094 L 441.441406 99.148438 L 443.242188 99.148438 L 443.242188 100.046875 L 445.046875 100.046875 L 445.046875 100.949219 L 446.847656 100.949219 L 446.847656 101.851562 L 447.746094 101.851562 L 447.746094 102.753906 L 449.550781 102.753906 L 449.550781 103.652344 L 450.449219 103.652344 L 450.449219 104.554688 L 452.253906 104.554688 L 452.253906 105.457031 L 454.054688 105.457031 L 454.054688 106.355469 L 454.953125 106.355469 L 454.953125 107.257812 L 456.757812 107.257812 L 456.757812 108.160156 L 457.65625 108.160156 L 457.65625 109.0625 L 459.460938 109.0625 L 459.460938 109.960938 L 461.261719 109.960938 L 461.261719 110.863281 L 462.164062 110.863281 L 462.164062 111.765625 L 463.964844 111.765625 L 463.964844 112.667969 L 465.765625 112.667969 L 465.765625 113.566406 L 466.667969 113.566406 L 466.667969 114.46875 L 468.46875 114.46875 L 468.46875 115.371094 L 469.371094 115.371094 L 469.371094 116.273438 L 471.171875 116.273438 L 471.171875 117.171875 L 472.972656 117.171875 L 472.972656 118.074219 L 473.875 118.074219 L 473.875 118.976562 L 475.675781 118.976562 L 475.675781 119.878906 L 477.476562 119.878906 L 477.476562 120.777344 L 478.378906 120.777344 L 478.378906 121.679688 L 480.179688 121.679688 L 480.179688 122.582031 L 481.980469 122.582031 L 481.980469 123.484375 L 482.882812 123.484375 L 482.882812 124.382812 L 484.683594 124.382812 L 484.683594 125.285156 L 485.585938 125.285156 L 485.585938 126.1875 L 487.386719 126.1875 L 487.386719 127.089844 L 489.1875 127.089844 L 489.1875 127.988281 L 490.089844 127.988281 L 490.089844 128.890625 L 491.890625 128.890625 L 491.890625 129.792969 L 493.695312 129.792969 L 493.695312 130.691406 L 494.59375 130.691406 L 494.59375 131.59375 L 496.394531 131.59375 L 496.394531 132.496094 L 497.296875 132.496094 L 497.296875 133.398438 L 499.097656 133.398438 L 499.097656 134.296875 L 500.902344 134.296875 L 500.902344 135.199219 L 501.800781 135.199219 L 501.800781 136.101562 L 503.605469 136.101562 L 503.605469 137.003906 L 505.40625 137.003906 L 505.40625 137.902344 L 506.304688 137.902344 L 506.304688 138.804688 L 508.109375 138.804688 L 508.109375 139.707031 L 509.910156 139.707031 L 509.910156 140.609375 L 510.8125 140.609375 L 510.8125 141.507812 L 512.613281 141.507812 L 512.613281 142.410156 L 513.511719 142.410156 L 513.511719 143.3125 L 514.414062 143.3125 L 514.414062 144.214844 L 515.316406 144.214844 L 515.316406 145.113281 L 516.214844 145.113281 L 516.214844 146.917969 L 517.117188 146.917969 L 517.117188 154.128906 L 516.214844 154.128906 L 516.214844 155.929688 L 515.316406 155.929688 L 515.316406 156.832031 L 514.414062 156.832031 L 514.414062 157.734375 L 513.511719 157.734375 L 513.511719 158.632812 L 512.613281 158.632812 L 512.613281 159.535156 L 511.710938 159.535156 L 511.710938 160.4375 L 510.8125 160.4375 L 510.8125 161.339844 L 509.910156 161.339844 L 509.910156 162.238281 L 509.007812 162.238281 L 509.007812 163.140625 L 508.109375 163.140625 L 508.109375 164.042969 L 507.207031 164.042969 L 507.207031 164.945312 L 506.304688 164.945312 L 506.304688 165.84375 L 504.503906 165.84375 L 504.503906 166.746094 L 503.605469 166.746094 L 503.605469 167.648438 L 502.703125 167.648438 L 502.703125 168.550781 L 501.800781 168.550781 L 501.800781 169.449219 L 500.902344 169.449219 L 500.902344 170.351562 L 500 170.351562 L 500 171.253906 L 499.097656 171.253906 L 499.097656 172.15625 L 498.199219 172.15625 L 498.199219 173.054688 L 497.296875 173.054688 L 497.296875 173.957031 L 496.394531 173.957031 L 496.394531 174.859375 L 494.59375 174.859375 L 494.59375 175.761719 L 493.695312 175.761719 L 493.695312 176.660156 L 492.792969 176.660156 L 492.792969 177.5625 L 491.890625 177.5625 L 491.890625 178.464844 L 490.992188 178.464844 L 490.992188 179.367188 L 490.089844 179.367188 L 490.089844 180.265625 L 489.1875 180.265625 L 489.1875 181.167969 L 488.289062 181.167969 L 488.289062 182.070312 L 486.488281 182.070312 L 486.488281 182.96875 L 485.585938 182.96875 L 485.585938 183.871094 L 484.683594 183.871094 L 484.683594 184.773438 L 483.785156 184.773438 L 483.785156 185.675781 L 482.882812 185.675781 L 482.882812 186.574219 L 481.980469 186.574219 L 481.980469 187.476562 L 481.082031 187.476562 L 481.082031 188.378906 L 480.179688 188.378906 L 480.179688 189.28125 L 478.378906 189.28125 L 478.378906 190.179688 L 477.476562 190.179688 L 477.476562 191.082031 L 476.578125 191.082031 L 476.578125 191.984375 L 475.675781 191.984375 L 475.675781 192.886719 L 474.773438 192.886719 L 474.773438 193.785156 L 473.875 193.785156 L 473.875 194.6875 L 472.972656 194.6875 L 472.972656 195.589844 L 472.070312 195.589844 L 472.070312 196.492188 L 470.269531 196.492188 L 470.269531 197.390625 L 469.371094 197.390625 L 469.371094 198.292969 L 468.46875 198.292969 L 468.46875 199.195312 L 467.566406 199.195312 L 467.566406 200.097656 L 466.667969 200.097656 L 466.667969 200.996094 L 465.765625 200.996094 L 465.765625 201.898438 L 464.863281 201.898438 L 464.863281 202.800781 L 463.964844 202.800781 L 463.964844 203.703125 L 463.0625 203.703125 L 463.0625 204.601562 L 461.261719 204.601562 L 461.261719 205.503906 L 460.359375 205.503906 L 460.359375 206.40625 L 459.460938 206.40625 L 459.460938 207.308594 L 458.558594 207.308594 L 458.558594 208.207031 L 457.65625 208.207031 L 457.65625 209.109375 L 456.757812 209.109375 L 456.757812 210.011719 L 455.855469 210.011719 L 455.855469 210.910156 L 454.953125 210.910156 L 454.953125 211.8125 L 454.054688 211.8125 L 454.054688 212.714844 L 453.152344 212.714844 L 453.152344 213.617188 L 451.351562 213.617188 L 451.351562 214.515625 L 450.449219 214.515625 L 450.449219 215.417969 L 449.550781 215.417969 L 449.550781 216.320312 L 448.648438 216.320312 L 448.648438 217.222656 L 447.746094 217.222656 L 447.746094 218.121094 L 446.847656 218.121094 L 446.847656 219.023438 L 445.945312 219.023438 L 445.945312 219.925781 L 445.046875 219.925781 L 445.046875 220.828125 L 443.242188 220.828125 L 443.242188 221.726562 L 442.34375 221.726562 L 442.34375 222.628906 L 441.441406 222.628906 L 441.441406 223.53125 L 440.539062 223.53125 L 440.539062 224.433594 L 439.640625 224.433594 L 439.640625 225.332031 L 438.738281 225.332031 L 438.738281 226.234375 L 437.835938 226.234375 L 437.835938 227.136719 L 436.035156 227.136719 L 436.035156 228.039062 L 435.136719 228.039062 L 435.136719 228.9375 L 434.234375 228.9375 L 434.234375 229.839844 L 433.332031 229.839844 L 433.332031 230.742188 L 432.433594 230.742188 L 432.433594 231.644531 L 431.53125 231.644531 L 431.53125 232.542969 L 430.628906 232.542969 L 430.628906 233.445312 L 429.730469 233.445312 L 429.730469 234.347656 L 428.828125 234.347656 L 428.828125 235.246094 L 427.027344 235.246094 L 427.027344 236.148438 L 426.125 236.148438 L 426.125 237.050781 L 425.226562 237.050781 L 425.226562 237.953125 L 424.324219 237.953125 L 424.324219 238.851562 L 423.421875 238.851562 L 423.421875 239.753906 L 422.523438 239.753906 L 422.523438 240.65625 L 421.621094 240.65625 L 421.621094 241.558594 L 420.722656 241.558594 L 420.722656 242.457031 L 418.917969 242.457031 L 418.917969 243.359375 L 418.019531 243.359375 L 418.019531 244.261719 L 417.117188 244.261719 L 417.117188 245.164062 L 416.214844 245.164062 L 416.214844 246.0625 L 415.316406 246.0625 L 415.316406 246.964844 L 414.414062 246.964844 L 414.414062 247.867188 L 413.511719 247.867188 L 413.511719 248.769531 L 412.613281 248.769531 L 412.613281 249.667969 L 411.710938 249.667969 L 411.710938 250.570312 L 410.8125 250.570312 L 410.8125 251.472656 L 409.910156 251.472656 L 409.910156 252.375 L 409.007812 252.375 L 409.007812 253.273438 L 408.109375 253.273438 L 408.109375 254.175781 L 407.207031 254.175781 L 407.207031 255.078125 L 406.304688 255.078125 L 406.304688 255.980469 L 405.40625 255.980469 L 405.40625 256.878906 L 402.703125 256.878906 L 402.703125 250.570312 L 401.800781 250.570312 L 401.800781 239.753906 L 400.902344 239.753906 L 400.902344 230.742188 L 400 230.742188 L 400 220.828125 L 399.097656 220.828125 L 399.097656 214.515625 L 394.59375 214.515625 L 394.59375 215.417969 L 383.785156 215.417969 L 383.785156 216.320312 L 370.269531 216.320312 L 370.269531 217.222656 L 361.261719 217.222656 L 361.261719 218.121094 L 352.253906 218.121094 L 352.253906 219.023438 L 342.34375 219.023438 L 342.34375 219.925781 L 333.332031 219.925781 L 333.332031 220.828125 L 323.421875 220.828125 L 323.421875 221.726562 L 310.8125 221.726562 L 310.8125 222.628906 L 300 222.628906 L 300 223.53125 L 290.992188 223.53125 L 290.992188 224.433594 L 282.882812 224.433594 L 282.882812 225.332031 L 272.972656 225.332031 L 272.972656 226.234375 L 264.863281 226.234375 L 264.863281 227.136719 L 253.152344 227.136719 L 253.152344 228.039062 L 240.539062 228.039062 L 240.539062 228.9375 L 230.628906 228.9375 L 230.628906 229.839844 L 221.621094 229.839844 L 221.621094 230.742188 L 212.613281 230.742188 L 212.613281 231.644531 L 203.605469 231.644531 L 203.605469 232.542969 L 195.496094 232.542969 L 195.496094 233.445312 L 183.785156 233.445312 L 183.785156 234.347656 L 171.171875 234.347656 L 171.171875 235.246094 L 162.164062 235.246094 L 162.164062 236.148438 L 153.152344 236.148438 L 153.152344 237.050781 L 144.144531 237.050781 L 144.144531 237.953125 L 135.136719 237.953125 L 135.136719 238.851562 L 126.125 238.851562 L 126.125 239.753906 L 115.316406 239.753906 L 115.316406 240.65625 L 112.613281 240.65625 L 112.613281 239.753906 L 108.109375 239.753906 L 108.109375 238.851562 L 106.304688 238.851562 L 106.304688 237.953125 L 105.40625 237.953125 L 105.40625 237.050781 L 104.503906 237.050781 L 104.503906 236.148438 L 103.605469 236.148438 L 103.605469 234.347656 L 102.703125 234.347656 L 102.703125 232.542969 L 101.800781 232.542969 L 101.800781 229.839844 L 100.902344 229.839844 L 100.902344 220.828125 L 100 220.828125 L 100 211.8125 L 99.097656 211.8125 L 99.097656 201.898438 L 98.199219 201.898438 L 98.199219 191.082031 L 97.296875 191.082031 L 97.296875 180.265625 L 96.394531 180.265625 L 96.394531 171.253906 L 95.496094 171.253906 L 95.496094 161.339844 L 94.59375 161.339844 L 94.59375 151.425781 L 93.695312 151.425781 L 93.695312 141.507812 L 94.59375 141.507812 L 94.59375 138.804688 L 95.496094 138.804688 L 95.496094 137.902344 L 96.394531 137.902344 L 96.394531 137.003906 L 97.296875 137.003906 L 97.296875 136.101562 L 98.199219 136.101562 L 98.199219 135.199219 L 99.097656 135.199219 L 99.097656 134.296875 L 100.902344 134.296875 L 100.902344 133.398438 L 106.304688 133.398438 L 106.304688 132.496094 L 116.214844 132.496094 L 116.214844 131.59375 L 124.324219 131.59375 L 124.324219 130.691406 L 135.136719 130.691406 L 135.136719 129.792969 L 144.144531 129.792969 L 144.144531 128.890625 L 156.757812 128.890625 L 156.757812 127.988281 L 165.765625 127.988281 L 165.765625 127.089844 L 175.675781 127.089844 L 175.675781 126.1875 L 184.683594 126.1875 L 184.683594 125.285156 L 194.59375 125.285156 L 194.59375 124.382812 L 204.503906 124.382812 L 204.503906 123.484375 L 214.414062 123.484375 L 214.414062 122.582031 L 226.125 122.582031 L 226.125 121.679688 L 236.035156 121.679688 L 236.035156 120.777344 L 245.046875 120.777344 L 245.046875 119.878906 L 254.953125 119.878906 L 254.953125 118.976562 L 263.0625 118.976562 L 263.0625 118.074219 L 273.875 118.074219 L 273.875 117.171875 L 283.785156 117.171875 L 283.785156 116.273438 L 296.394531 116.273438 L 296.394531 115.371094 L 304.503906 115.371094 L 304.503906 114.46875 L 314.414062 114.46875 L 314.414062 113.566406 L 324.324219 113.566406 L 324.324219 112.667969 L 333.332031 112.667969 L 333.332031 111.765625 L 344.144531 111.765625 L 344.144531 110.863281 L 354.054688 110.863281 L 354.054688 109.960938 L 364.863281 109.960938 L 364.863281 109.0625 L 374.773438 109.0625 L 374.773438 108.160156 L 383.785156 108.160156 L 383.785156 107.257812 L 389.1875 107.257812 L 389.1875 101.851562 L 388.289062 101.851562 L 388.289062 91.9375 L 387.386719 91.9375 L 387.386719 82.921875 L 386.488281 82.921875 L 386.488281 71.207031 L 385.585938 71.207031 Z M 391.890625 75.710938 L 391.890625 78.414062 L 392.792969 78.414062 L 392.792969 89.230469 L 393.695312 89.230469 L 393.695312 98.246094 L 394.59375 98.246094 L 394.59375 108.160156 L 395.496094 108.160156 L 395.496094 112.667969 L 385.585938 112.667969 L 385.585938 113.566406 L 376.578125 113.566406 L 376.578125 114.46875 L 366.667969 114.46875 L 366.667969 115.371094 L 356.757812 115.371094 L 356.757812 116.273438 L 345.046875 116.273438 L 345.046875 117.171875 L 336.035156 117.171875 L 336.035156 118.074219 L 326.125 118.074219 L 326.125 118.976562 L 317.117188 118.976562 L 317.117188 119.878906 L 307.207031 119.878906 L 307.207031 120.777344 L 296.394531 120.777344 L 296.394531 121.679688 L 287.386719 121.679688 L 287.386719 122.582031 L 275.675781 122.582031 L 275.675781 123.484375 L 266.667969 123.484375 L 266.667969 124.382812 L 256.757812 124.382812 L 256.757812 125.285156 L 246.847656 125.285156 L 246.847656 126.1875 L 237.835938 126.1875 L 237.835938 127.089844 L 226.125 127.089844 L 226.125 127.988281 L 217.117188 127.988281 L 217.117188 128.890625 L 206.304688 128.890625 L 206.304688 129.792969 L 197.296875 129.792969 L 197.296875 130.691406 L 187.386719 130.691406 L 187.386719 131.59375 L 176.578125 131.59375 L 176.578125 132.496094 L 168.46875 132.496094 L 168.46875 133.398438 L 156.757812 133.398438 L 156.757812 134.296875 L 147.746094 134.296875 L 147.746094 135.199219 L 136.9375 135.199219 L 136.9375 136.101562 L 127.929688 136.101562 L 127.929688 137.003906 L 118.019531 137.003906 L 118.019531 137.902344 L 108.109375 137.902344 L 108.109375 138.804688 L 102.703125 138.804688 L 102.703125 139.707031 L 101.800781 139.707031 L 101.800781 140.609375 L 100.902344 140.609375 L 100.902344 141.507812 L 100 141.507812 L 100 143.3125 L 99.097656 143.3125 L 99.097656 148.71875 L 100 148.71875 L 100 157.734375 L 100.902344 157.734375 L 100.902344 167.648438 L 101.800781 167.648438 L 101.800781 177.5625 L 102.703125 177.5625 L 102.703125 187.476562 L 103.605469 187.476562 L 103.605469 199.195312 L 104.503906 199.195312 L 104.503906 208.207031 L 105.40625 208.207031 L 105.40625 218.121094 L 106.304688 218.121094 L 106.304688 228.039062 L 107.207031 228.039062 L 107.207031 230.742188 L 108.109375 230.742188 L 108.109375 232.542969 L 109.007812 232.542969 L 109.007812 233.445312 L 110.8125 233.445312 L 110.8125 234.347656 L 118.917969 234.347656 L 118.917969 233.445312 L 131.53125 233.445312 L 131.53125 232.542969 L 140.539062 232.542969 L 140.539062 231.644531 L 149.550781 231.644531 L 149.550781 230.742188 L 160.359375 230.742188 L 160.359375 229.839844 L 169.371094 229.839844 L 169.371094 228.9375 L 180.179688 228.9375 L 180.179688 228.039062 L 189.1875 228.039062 L 189.1875 227.136719 L 200.902344 227.136719 L 200.902344 226.234375 L 209.910156 226.234375 L 209.910156 225.332031 L 219.820312 225.332031 L 219.820312 224.433594 L 229.730469 224.433594 L 229.730469 223.53125 L 238.738281 223.53125 L 238.738281 222.628906 L 250.449219 222.628906 L 250.449219 221.726562 L 259.460938 221.726562 L 259.460938 220.828125 L 270.269531 220.828125 L 270.269531 219.925781 L 279.277344 219.925781 L 279.277344 219.023438 L 288.289062 219.023438 L 288.289062 218.121094 L 299.097656 218.121094 L 299.097656 217.222656 L 308.109375 217.222656 L 308.109375 216.320312 L 319.820312 216.320312 L 319.820312 215.417969 L 328.828125 215.417969 L 328.828125 214.515625 L 338.738281 214.515625 L 338.738281 213.617188 L 348.648438 213.617188 L 348.648438 212.714844 L 357.65625 212.714844 L 357.65625 211.8125 L 368.46875 211.8125 L 368.46875 210.910156 L 377.476562 210.910156 L 377.476562 210.011719 L 389.1875 210.011719 L 389.1875 209.109375 L 398.199219 209.109375 L 398.199219 208.207031 L 403.605469 208.207031 L 403.605469 209.109375 L 404.503906 209.109375 L 404.503906 218.121094 L 405.40625 218.121094 L 405.40625 228.039062 L 406.304688 228.039062 L 406.304688 237.050781 L 407.207031 237.050781 L 407.207031 245.164062 L 408.109375 245.164062 L 408.109375 244.261719 L 409.910156 244.261719 L 409.910156 243.359375 L 410.8125 243.359375 L 410.8125 242.457031 L 411.710938 242.457031 L 411.710938 241.558594 L 412.613281 241.558594 L 412.613281 240.65625 L 413.511719 240.65625 L 413.511719 239.753906 L 414.414062 239.753906 L 414.414062 238.851562 L 415.316406 238.851562 L 415.316406 237.953125 L 417.117188 237.953125 L 417.117188 237.050781 L 418.019531 237.050781 L 418.019531 236.148438 L 418.917969 236.148438 L 418.917969 235.246094 L 419.820312 235.246094 L 419.820312 234.347656 L 420.722656 234.347656 L 420.722656 233.445312 L 421.621094 233.445312 L 421.621094 232.542969 L 422.523438 232.542969 L 422.523438 231.644531 L 423.421875 231.644531 L 423.421875 230.742188 L 424.324219 230.742188 L 424.324219 229.839844 L 426.125 229.839844 L 426.125 228.9375 L 427.027344 228.9375 L 427.027344 228.039062 L 427.929688 228.039062 L 427.929688 227.136719 L 428.828125 227.136719 L 428.828125 226.234375 L 429.730469 226.234375 L 429.730469 225.332031 L 430.628906 225.332031 L 430.628906 224.433594 L 431.53125 224.433594 L 431.53125 223.53125 L 432.433594 223.53125 L 432.433594 222.628906 L 433.332031 222.628906 L 433.332031 221.726562 L 435.136719 221.726562 L 435.136719 220.828125 L 436.035156 220.828125 L 436.035156 219.925781 L 436.9375 219.925781 L 436.9375 219.023438 L 437.835938 219.023438 L 437.835938 218.121094 L 438.738281 218.121094 L 438.738281 217.222656 L 439.640625 217.222656 L 439.640625 216.320312 L 440.539062 216.320312 L 440.539062 215.417969 L 441.441406 215.417969 L 441.441406 214.515625 L 443.242188 214.515625 L 443.242188 213.617188 L 444.144531 213.617188 L 444.144531 212.714844 L 445.046875 212.714844 L 445.046875 211.8125 L 445.945312 211.8125 L 445.945312 210.910156 L 446.847656 210.910156 L 446.847656 210.011719 L 447.746094 210.011719 L 447.746094 209.109375 L 448.648438 209.109375 L 448.648438 208.207031 L 449.550781 208.207031 L 449.550781 207.308594 L 450.449219 207.308594 L 450.449219 206.40625 L 451.351562 206.40625 L 451.351562 205.503906 L 453.152344 205.503906 L 453.152344 204.601562 L 454.054688 204.601562 L 454.054688 203.703125 L 454.953125 203.703125 L 454.953125 202.800781 L 455.855469 202.800781 L 455.855469 201.898438 L 456.757812 201.898438 L 456.757812 200.996094 L 457.65625 200.996094 L 457.65625 200.097656 L 458.558594 200.097656 L 458.558594 199.195312 L 459.460938 199.195312 L 459.460938 198.292969 L 461.261719 198.292969 L 461.261719 197.390625 L 462.164062 197.390625 L 462.164062 196.492188 L 463.0625 196.492188 L 463.0625 195.589844 L 463.964844 195.589844 L 463.964844 194.6875 L 464.863281 194.6875 L 464.863281 193.785156 L 465.765625 193.785156 L 465.765625 192.886719 L 466.667969 192.886719 L 466.667969 191.984375 L 467.566406 191.984375 L 467.566406 191.082031 L 469.371094 191.082031 L 469.371094 190.179688 L 470.269531 190.179688 L 470.269531 189.28125 L 471.171875 189.28125 L 471.171875 188.378906 L 472.070312 188.378906 L 472.070312 187.476562 L 472.972656 187.476562 L 472.972656 186.574219 L 473.875 186.574219 L 473.875 185.675781 L 474.773438 185.675781 L 474.773438 184.773438 L 475.675781 184.773438 L 475.675781 183.871094 L 476.578125 183.871094 L 476.578125 182.96875 L 477.476562 182.96875 L 477.476562 182.070312 L 479.277344 182.070312 L 479.277344 181.167969 L 480.179688 181.167969 L 480.179688 180.265625 L 481.082031 180.265625 L 481.082031 179.367188 L 481.980469 179.367188 L 481.980469 178.464844 L 482.882812 178.464844 L 482.882812 177.5625 L 483.785156 177.5625 L 483.785156 176.660156 L 484.683594 176.660156 L 484.683594 175.761719 L 485.585938 175.761719 L 485.585938 174.859375 L 486.488281 174.859375 L 486.488281 173.957031 L 488.289062 173.957031 L 488.289062 173.054688 L 489.1875 173.054688 L 489.1875 172.15625 L 490.089844 172.15625 L 490.089844 171.253906 L 490.992188 171.253906 L 490.992188 170.351562 L 491.890625 170.351562 L 491.890625 169.449219 L 492.792969 169.449219 L 492.792969 168.550781 L 493.695312 168.550781 L 493.695312 167.648438 L 495.496094 167.648438 L 495.496094 166.746094 L 496.394531 166.746094 L 496.394531 165.84375 L 497.296875 165.84375 L 497.296875 164.945312 L 498.199219 164.945312 L 498.199219 164.042969 L 499.097656 164.042969 L 499.097656 163.140625 L 500 163.140625 L 500 162.238281 L 500.902344 162.238281 L 500.902344 161.339844 L 501.800781 161.339844 L 501.800781 160.4375 L 502.703125 160.4375 L 502.703125 159.535156 L 504.503906 159.535156 L 504.503906 158.632812 L 505.40625 158.632812 L 505.40625 157.734375 L 506.304688 157.734375 L 506.304688 156.832031 L 507.207031 156.832031 L 507.207031 155.929688 L 508.109375 155.929688 L 508.109375 155.03125 L 509.007812 155.03125 L 509.007812 154.128906 L 509.910156 154.128906 L 509.910156 153.226562 L 510.8125 153.226562 L 510.8125 152.324219 L 511.710938 152.324219 L 511.710938 148.71875 L 510.8125 148.71875 L 510.8125 147.820312 L 509.910156 147.820312 L 509.910156 146.917969 L 509.007812 146.917969 L 509.007812 146.015625 L 507.207031 146.015625 L 507.207031 145.113281 L 506.304688 145.113281 L 506.304688 144.214844 L 504.503906 144.214844 L 504.503906 143.3125 L 503.605469 143.3125 L 503.605469 142.410156 L 501.800781 142.410156 L 501.800781 141.507812 L 500 141.507812 L 500 140.609375 L 499.097656 140.609375 L 499.097656 139.707031 L 497.296875 139.707031 L 497.296875 138.804688 L 495.496094 138.804688 L 495.496094 137.902344 L 494.59375 137.902344 L 494.59375 137.003906 L 492.792969 137.003906 L 492.792969 136.101562 L 490.992188 136.101562 L 490.992188 135.199219 L 490.089844 135.199219 L 490.089844 134.296875 L 488.289062 134.296875 L 488.289062 133.398438 L 487.386719 133.398438 L 487.386719 132.496094 L 485.585938 132.496094 L 485.585938 131.59375 L 483.785156 131.59375 L 483.785156 130.691406 L 482.882812 130.691406 L 482.882812 129.792969 L 481.082031 129.792969 L 481.082031 128.890625 L 479.277344 128.890625 L 479.277344 127.988281 L 478.378906 127.988281 L 478.378906 127.089844 L 476.578125 127.089844 L 476.578125 126.1875 L 475.675781 126.1875 L 475.675781 125.285156 L 473.875 125.285156 L 473.875 124.382812 L 472.070312 124.382812 L 472.070312 123.484375 L 471.171875 123.484375 L 471.171875 122.582031 L 469.371094 122.582031 L 469.371094 121.679688 L 468.46875 121.679688 L 468.46875 120.777344 L 466.667969 120.777344 L 466.667969 119.878906 L 464.863281 119.878906 L 464.863281 118.976562 L 463.0625 118.976562 L 463.0625 118.074219 L 462.164062 118.074219 L 462.164062 117.171875 L 460.359375 117.171875 L 460.359375 116.273438 L 458.558594 116.273438 L 458.558594 115.371094 L 457.65625 115.371094 L 457.65625 114.46875 L 455.855469 114.46875 L 455.855469 113.566406 L 454.953125 113.566406 L 454.953125 112.667969 L 453.152344 112.667969 L 453.152344 111.765625 L 451.351562 111.765625 L 451.351562 110.863281 L 450.449219 110.863281 L 450.449219 109.960938 L 448.648438 109.960938 L 448.648438 109.0625 L 446.847656 109.0625 L 446.847656 108.160156 L 445.945312 108.160156 L 445.945312 107.257812 L 444.144531 107.257812 L 444.144531 106.355469 L 443.242188 106.355469 L 443.242188 105.457031 L 441.441406 105.457031 L 441.441406 104.554688 L 439.640625 104.554688 L 439.640625 103.652344 L 438.738281 103.652344 L 438.738281 102.753906 L 436.9375 102.753906 L 436.9375 101.851562 L 435.136719 101.851562 L 435.136719 100.949219 L 434.234375 100.949219 L 434.234375 100.046875 L 432.433594 100.046875 L 432.433594 99.148438 L 431.53125 99.148438 L 431.53125 98.246094 L 429.730469 98.246094 L 429.730469 97.34375 L 427.929688 97.34375 L 427.929688 96.441406 L 427.027344 96.441406 L 427.027344 95.542969 L 425.226562 95.542969 L 425.226562 94.640625 L 423.421875 94.640625 L 423.421875 93.738281 L 422.523438 93.738281 L 422.523438 92.835938 L 420.722656 92.835938 L 420.722656 91.9375 L 418.917969 91.9375 L 418.917969 91.035156 L 418.019531 91.035156 L 418.019531 90.132812 L 416.214844 90.132812 L 416.214844 89.230469 L 415.316406 89.230469 L 415.316406 88.332031 L 413.511719 88.332031 L 413.511719 87.429688 L 411.710938 87.429688 L 411.710938 86.527344 L 410.8125 86.527344 L 410.8125 85.625 L 409.007812 85.625 L 409.007812 84.726562 L 407.207031 84.726562 L 407.207031 83.824219 L 406.304688 83.824219 L 406.304688 82.921875 L 404.503906 82.921875 L 404.503906 82.019531 L 403.605469 82.019531 L 403.605469 81.121094 L 401.800781 81.121094 L 401.800781 80.21875 L 400 80.21875 L 400 79.316406 L 399.097656 79.316406 L 399.097656 78.414062 L 397.296875 78.414062 L 397.296875 77.515625 L 395.496094 77.515625 L 395.496094 76.613281 L 394.59375 76.613281 L 394.59375 75.710938 Z M 391.890625 75.710938 "/>
<path style=" stroke:none;fill-rule:nonzero;fill:rgb(1.960784%,1.960784%,1.960784%);fill-opacity:1;" d="M 395.496094 81.121094 L 397.296875 81.121094 L 397.296875 82.019531 L 399.097656 82.019531 L 399.097656 82.921875 L 400 82.921875 L 400 83.824219 L 401.800781 83.824219 L 401.800781 84.726562 L 403.605469 84.726562 L 403.605469 85.625 L 404.503906 85.625 L 404.503906 86.527344 L 406.304688 86.527344 L 406.304688 87.429688 L 407.207031 87.429688 L 407.207031 88.332031 L 409.007812 88.332031 L 409.007812 89.230469 L 410.8125 89.230469 L 410.8125 90.132812 L 411.710938 90.132812 L 411.710938 91.035156 L 413.511719 91.035156 L 413.511719 91.9375 L 415.316406 91.9375 L 415.316406 92.835938 L 416.214844 92.835938 L 416.214844 93.738281 L 418.019531 93.738281 L 418.019531 94.640625 L 419.820312 94.640625 L 419.820312 95.542969 L 420.722656 95.542969 L 420.722656 96.441406 L 422.523438 96.441406 L 422.523438 97.34375 L 424.324219 97.34375 L 424.324219 98.246094 L 425.226562 98.246094 L 425.226562 99.148438 L 427.027344 99.148438 L 427.027344 100.046875 L 427.929688 100.046875 L 427.929688 100.949219 L 429.730469 100.949219 L 429.730469 101.851562 L 431.53125 101.851562 L 431.53125 102.753906 L 432.433594 102.753906 L 432.433594 103.652344 L 434.234375 103.652344 L 434.234375 104.554688 L 436.035156 104.554688 L 436.035156 105.457031 L 436.9375 105.457031 L 436.9375 106.355469 L 438.738281 106.355469 L 438.738281 107.257812 L 439.640625 107.257812 L 439.640625 108.160156 L 441.441406 108.160156 L 441.441406 109.0625 L 443.242188 109.0625 L 443.242188 109.960938 L 444.144531 109.960938 L 444.144531 110.863281 L 445.945312 110.863281 L 445.945312 111.765625 L 447.746094 111.765625 L 447.746094 112.667969 L 448.648438 112.667969 L 448.648438 113.566406 L 450.449219 113.566406 L 450.449219 114.46875 L 451.351562 114.46875 L 451.351562 115.371094 L 453.152344 115.371094 L 453.152344 116.273438 L 454.953125 116.273438 L 454.953125 117.171875 L 455.855469 117.171875 L 455.855469 118.074219 L 457.65625 118.074219 L 457.65625 118.976562 L 459.460938 118.976562 L 459.460938 119.878906 L 460.359375 119.878906 L 460.359375 120.777344 L 462.164062 120.777344 L 462.164062 121.679688 L 463.964844 121.679688 L 463.964844 122.582031 L 464.863281 122.582031 L 464.863281 123.484375 L 466.667969 123.484375 L 466.667969 124.382812 L 467.566406 124.382812 L 467.566406 125.285156 L 469.371094 125.285156 L 469.371094 126.1875 L 471.171875 126.1875 L 471.171875 127.089844 L 472.070312 127.089844 L 472.070312 127.988281 L 473.875 127.988281 L 473.875 128.890625 L 475.675781 128.890625 L 475.675781 129.792969 L 476.578125 129.792969 L 476.578125 130.691406 L 478.378906 130.691406 L 478.378906 131.59375 L 480.179688 131.59375 L 480.179688 132.496094 L 481.082031 132.496094 L 481.082031 133.398438 L 482.882812 133.398438 L 482.882812 134.296875 L 483.785156 134.296875 L 483.785156 135.199219 L 485.585938 135.199219 L 485.585938 136.101562 L 487.386719 136.101562 L 487.386719 137.003906 L 488.289062 137.003906 L 488.289062 137.902344 L 490.089844 137.902344 L 490.089844 138.804688 L 491.890625 138.804688 L 491.890625 139.707031 L 492.792969 139.707031 L 492.792969 140.609375 L 494.59375 140.609375 L 494.59375 141.507812 L 495.496094 141.507812 L 495.496094 142.410156 L 497.296875 142.410156 L 497.296875 143.3125 L 499.097656 143.3125 L 499.097656 144.214844 L 500 144.214844 L 500 145.113281 L 501.800781 145.113281 L 501.800781 146.015625 L 503.605469 146.015625 L 503.605469 146.917969 L 504.503906 146.917969 L 504.503906 147.820312 L 506.304688 147.820312 L 506.304688 148.71875 L 508.109375 148.71875 L 508.109375 151.425781 L 507.207031 151.425781 L 507.207031 152.324219 L 506.304688 152.324219 L 506.304688 153.226562 L 505.40625 153.226562 L 505.40625 154.128906 L 504.503906 154.128906 L 504.503906 155.03125 L 503.605469 155.03125 L 503.605469 155.929688 L 502.703125 155.929688 L 502.703125 156.832031 L 501.800781 156.832031 L 501.800781 157.734375 L 500.902344 157.734375 L 500.902344 158.632812 L 499.097656 158.632812 L 499.097656 159.535156 L 498.199219 159.535156 L 498.199219 160.4375 L 497.296875 160.4375 L 497.296875 161.339844 L 496.394531 161.339844 L 496.394531 162.238281 L 495.496094 162.238281 L 495.496094 163.140625 L 494.59375 163.140625 L 494.59375 164.042969 L 493.695312 164.042969 L 493.695312 164.945312 L 492.792969 164.945312 L 492.792969 165.84375 L 491.890625 165.84375 L 491.890625 166.746094 L 490.992188 166.746094 L 490.992188 167.648438 L 489.1875 167.648438 L 489.1875 168.550781 L 488.289062 168.550781 L 488.289062 169.449219 L 487.386719 169.449219 L 487.386719 170.351562 L 486.488281 170.351562 L 486.488281 171.253906 L 485.585938 171.253906 L 485.585938 172.15625 L 484.683594 172.15625 L 484.683594 173.054688 L 483.785156 173.054688 L 483.785156 173.957031 L 482.882812 173.957031 L 482.882812 174.859375 L 481.082031 174.859375 L 481.082031 175.761719 L 480.179688 175.761719 L 480.179688 176.660156 L 479.277344 176.660156 L 479.277344 177.5625 L 478.378906 177.5625 L 478.378906 178.464844 L 477.476562 178.464844 L 477.476562 179.367188 L 476.578125 179.367188 L 476.578125 180.265625 L 475.675781 180.265625 L 475.675781 181.167969 L 474.773438 181.167969 L 474.773438 182.070312 L 472.972656 182.070312 L 472.972656 182.96875 L 472.070312 182.96875 L 472.070312 183.871094 L 471.171875 183.871094 L 471.171875 184.773438 L 470.269531 184.773438 L 470.269531 185.675781 L 469.371094 185.675781 L 469.371094 186.574219 L 468.46875 186.574219 L 468.46875 187.476562 L 467.566406 187.476562 L 467.566406 188.378906 L 466.667969 188.378906 L 466.667969 189.28125 L 465.765625 189.28125 L 465.765625 190.179688 L 463.964844 190.179688 L 463.964844 191.082031 L 463.0625 191.082031 L 463.0625 191.984375 L 462.164062 191.984375 L 462.164062 192.886719 L 461.261719 192.886719 L 461.261719 193.785156 L 460.359375 193.785156 L 460.359375 194.6875 L 459.460938 194.6875 L 459.460938 195.589844 L 458.558594 195.589844 L 458.558594 196.492188 L 457.65625 196.492188 L 457.65625 197.390625 L 456.757812 197.390625 L 456.757812 198.292969 L 454.953125 198.292969 L 454.953125 199.195312 L 454.054688 199.195312 L 454.054688 200.097656 L 453.152344 200.097656 L 453.152344 200.996094 L 452.253906 200.996094 L 452.253906 201.898438 L 451.351562 201.898438 L 451.351562 202.800781 L 450.449219 202.800781 L 450.449219 203.703125 L 449.550781 203.703125 L 449.550781 204.601562 L 448.648438 204.601562 L 448.648438 205.503906 L 446.847656 205.503906 L 446.847656 206.40625 L 445.945312 206.40625 L 445.945312 207.308594 L 445.046875 207.308594 L 445.046875 208.207031 L 444.144531 208.207031 L 444.144531 209.109375 L 443.242188 209.109375 L 443.242188 210.011719 L 442.34375 210.011719 L 442.34375 210.910156 L 441.441406 210.910156 L 441.441406 211.8125 L 440.539062 211.8125 L 440.539062 212.714844 L 439.640625 212.714844 L 439.640625 213.617188 L 437.835938 213.617188 L 437.835938 214.515625 L 436.9375 214.515625 L 436.9375 215.417969 L 436.035156 215.417969 L 436.035156 216.320312 L 435.136719 216.320312 L 435.136719 217.222656 L 434.234375 217.222656 L 434.234375 218.121094 L 433.332031 218.121094 L 433.332031 219.023438 L 432.433594 219.023438 L 432.433594 219.925781 L 431.53125 219.925781 L 431.53125 220.828125 L 430.628906 220.828125 L 430.628906 221.726562 L 428.828125 221.726562 L 428.828125 222.628906 L 427.929688 222.628906 L 427.929688 223.53125 L 427.027344 223.53125 L 427.027344 224.433594 L 426.125 224.433594 L 426.125 225.332031 L 425.226562 225.332031 L 425.226562 226.234375 L 424.324219 226.234375 L 424.324219 227.136719 L 423.421875 227.136719 L 423.421875 228.039062 L 422.523438 228.039062 L 422.523438 228.9375 L 420.722656 228.9375 L 420.722656 229.839844 L 419.820312 229.839844 L 419.820312 230.742188 L 418.917969 230.742188 L 418.917969 231.644531 L 418.019531 231.644531 L 418.019531 232.542969 L 417.117188 232.542969 L 417.117188 233.445312 L 416.214844 233.445312 L 416.214844 234.347656 L 415.316406 234.347656 L 415.316406 235.246094 L 414.414062 235.246094 L 414.414062 236.148438 L 413.511719 236.148438 L 413.511719 237.050781 L 411.710938 237.050781 L 411.710938 237.953125 L 410.8125 237.953125 L 410.8125 238.851562 L 409.910156 238.851562 L 409.910156 234.347656 L 409.007812 234.347656 L 409.007812 224.433594 L 408.109375 224.433594 L 408.109375 213.617188 L 407.207031 213.617188 L 407.207031 205.503906 L 406.304688 205.503906 L 406.304688 204.601562 L 404.503906 204.601562 L 404.503906 205.503906 L 392.792969 205.503906 L 392.792969 206.40625 L 383.785156 206.40625 L 383.785156 207.308594 L 373.875 207.308594 L 373.875 208.207031 L 363.964844 208.207031 L 363.964844 209.109375 L 354.953125 209.109375 L 354.953125 210.011719 L 343.242188 210.011719 L 343.242188 210.910156 L 334.234375 210.910156 L 334.234375 211.8125 L 323.421875 211.8125 L 323.421875 212.714844 L 314.414062 212.714844 L 314.414062 213.617188 L 304.503906 213.617188 L 304.503906 214.515625 L 295.496094 214.515625 L 295.496094 215.417969 L 285.585938 215.417969 L 285.585938 216.320312 L 273.875 216.320312 L 273.875 217.222656 L 264.863281 217.222656 L 264.863281 218.121094 L 254.054688 218.121094 L 254.054688 219.023438 L 245.046875 219.023438 L 245.046875 219.925781 L 235.136719 219.925781 L 235.136719 220.828125 L 225.226562 220.828125 L 225.226562 221.726562 L 216.214844 221.726562 L 216.214844 222.628906 L 204.503906 222.628906 L 204.503906 223.53125 L 194.59375 223.53125 L 194.59375 224.433594 L 184.683594 224.433594 L 184.683594 225.332031 L 174.773438 225.332031 L 174.773438 226.234375 L 166.667969 226.234375 L 166.667969 227.136719 L 154.953125 227.136719 L 154.953125 228.039062 L 146.847656 228.039062 L 146.847656 228.9375 L 134.234375 228.9375 L 134.234375 229.839844 L 126.125 229.839844 L 126.125 230.742188 L 115.316406 230.742188 L 115.316406 231.644531 L 111.710938 231.644531 L 111.710938 230.742188 L 110.8125 230.742188 L 110.8125 229.839844 L 109.910156 229.839844 L 109.910156 223.53125 L 109.007812 223.53125 L 109.007812 214.515625 L 108.109375 214.515625 L 108.109375 202.800781 L 107.207031 202.800781 L 107.207031 193.785156 L 106.304688 193.785156 L 106.304688 183.871094 L 105.40625 183.871094 L 105.40625 173.957031 L 104.503906 173.957031 L 104.503906 164.945312 L 103.605469 164.945312 L 103.605469 153.226562 L 102.703125 153.226562 L 102.703125 142.410156 L 104.503906 142.410156 L 104.503906 141.507812 L 112.613281 141.507812 L 112.613281 140.609375 L 120.722656 140.609375 L 120.722656 139.707031 L 133.332031 139.707031 L 133.332031 138.804688 L 142.34375 138.804688 L 142.34375 137.902344 L 153.152344 137.902344 L 153.152344 137.003906 L 161.261719 137.003906 L 161.261719 136.101562 L 171.171875 136.101562 L 171.171875 135.199219 L 181.980469 135.199219 L 181.980469 134.296875 L 190.992188 134.296875 L 190.992188 133.398438 L 202.703125 133.398438 L 202.703125 132.496094 L 211.710938 132.496094 L 211.710938 131.59375 L 221.621094 131.59375 L 221.621094 130.691406 L 231.53125 130.691406 L 231.53125 129.792969 L 241.441406 129.792969 L 241.441406 128.890625 L 251.351562 128.890625 L 251.351562 127.988281 L 260.359375 127.988281 L 260.359375 127.089844 L 272.070312 127.089844 L 272.070312 126.1875 L 281.082031 126.1875 L 281.082031 125.285156 L 290.992188 125.285156 L 290.992188 124.382812 L 300.902344 124.382812 L 300.902344 123.484375 L 309.910156 123.484375 L 309.910156 122.582031 L 320.722656 122.582031 L 320.722656 121.679688 L 329.730469 121.679688 L 329.730469 120.777344 L 341.441406 120.777344 L 341.441406 119.878906 L 350.449219 119.878906 L 350.449219 118.976562 L 360.359375 118.976562 L 360.359375 118.074219 L 370.269531 118.074219 L 370.269531 117.171875 L 380.179688 117.171875 L 380.179688 116.273438 L 390.089844 116.273438 L 390.089844 115.371094 L 398.199219 115.371094 L 398.199219 105.457031 L 397.296875 105.457031 L 397.296875 93.738281 L 396.394531 93.738281 L 396.394531 84.726562 L 395.496094 84.726562 Z M 459.460938 144.214844 L 459.460938 155.03125 L 460.359375 155.03125 L 460.359375 155.929688 L 458.558594 155.929688 L 458.558594 154.128906 L 457.65625 154.128906 L 457.65625 153.226562 L 456.757812 153.226562 L 456.757812 152.324219 L 455.855469 152.324219 L 455.855469 150.523438 L 454.953125 150.523438 L 454.953125 149.621094 L 454.054688 149.621094 L 454.054688 147.820312 L 453.152344 147.820312 L 453.152344 146.917969 L 452.253906 146.917969 L 452.253906 145.113281 L 446.847656 145.113281 L 446.847656 146.015625 L 445.945312 146.015625 L 445.945312 149.621094 L 446.847656 149.621094 L 446.847656 158.632812 L 447.746094 158.632812 L 447.746094 167.648438 L 453.152344 167.648438 L 453.152344 163.140625 L 452.253906 163.140625 L 452.253906 155.03125 L 453.152344 155.03125 L 453.152344 156.832031 L 454.054688 156.832031 L 454.054688 157.734375 L 454.953125 157.734375 L 454.953125 158.632812 L 455.855469 158.632812 L 455.855469 160.4375 L 456.757812 160.4375 L 456.757812 161.339844 L 457.65625 161.339844 L 457.65625 163.140625 L 458.558594 163.140625 L 458.558594 164.042969 L 459.460938 164.042969 L 459.460938 165.84375 L 460.359375 165.84375 L 460.359375 166.746094 L 463.0625 166.746094 L 463.0625 165.84375 L 465.765625 165.84375 L 465.765625 158.632812 L 464.863281 158.632812 L 464.863281 148.71875 L 463.964844 148.71875 L 463.964844 144.214844 Z M 428.828125 146.917969 L 428.828125 147.820312 L 426.125 147.820312 L 426.125 148.71875 L 425.226562 148.71875 L 425.226562 149.621094 L 424.324219 149.621094 L 424.324219 150.523438 L 423.421875 150.523438 L 423.421875 151.425781 L 422.523438 151.425781 L 422.523438 153.226562 L 421.621094 153.226562 L 421.621094 156.832031 L 420.722656 156.832031 L 420.722656 158.632812 L 421.621094 158.632812 L 421.621094 162.238281 L 422.523438 162.238281 L 422.523438 164.042969 L 423.421875 164.042969 L 423.421875 164.945312 L 424.324219 164.945312 L 424.324219 165.84375 L 425.226562 165.84375 L 425.226562 166.746094 L 426.125 166.746094 L 426.125 167.648438 L 427.929688 167.648438 L 427.929688 168.550781 L 431.53125 168.550781 L 431.53125 169.449219 L 433.332031 169.449219 L 433.332031 168.550781 L 436.9375 168.550781 L 436.9375 167.648438 L 438.738281 167.648438 L 438.738281 166.746094 L 439.640625 166.746094 L 439.640625 165.84375 L 440.539062 165.84375 L 440.539062 164.945312 L 441.441406 164.945312 L 441.441406 164.042969 L 442.34375 164.042969 L 442.34375 162.238281 L 443.242188 162.238281 L 443.242188 154.128906 L 442.34375 154.128906 L 442.34375 151.425781 L 441.441406 151.425781 L 441.441406 150.523438 L 440.539062 150.523438 L 440.539062 149.621094 L 439.640625 149.621094 L 439.640625 148.71875 L 437.835938 148.71875 L 437.835938 147.820312 L 436.035156 147.820312 L 436.035156 146.917969 Z M 413.511719 147.820312 L 413.511719 148.71875 L 411.710938 148.71875 L 411.710938 152.324219 L 412.613281 152.324219 L 412.613281 162.238281 L 413.511719 162.238281 L 413.511719 170.351562 L 418.917969 170.351562 L 418.917969 165.84375 L 418.019531 165.84375 L 418.019531 155.929688 L 417.117188 155.929688 L 417.117188 147.820312 Z M 403.605469 148.71875 L 403.605469 149.621094 L 394.59375 149.621094 L 394.59375 155.03125 L 399.097656 155.03125 L 399.097656 163.140625 L 400 163.140625 L 400 172.15625 L 404.503906 172.15625 L 404.503906 171.253906 L 405.40625 171.253906 L 405.40625 167.648438 L 404.503906 167.648438 L 404.503906 157.734375 L 403.605469 157.734375 L 403.605469 154.128906 L 407.207031 154.128906 L 407.207031 153.226562 L 408.109375 153.226562 L 408.109375 149.621094 L 407.207031 149.621094 L 407.207031 148.71875 Z M 379.277344 151.425781 L 379.277344 154.128906 L 378.378906 154.128906 L 378.378906 158.632812 L 377.476562 158.632812 L 377.476562 161.339844 L 376.578125 161.339844 L 376.578125 165.84375 L 375.675781 165.84375 L 375.675781 169.449219 L 374.773438 169.449219 L 374.773438 172.15625 L 373.875 172.15625 L 373.875 173.957031 L 379.277344 173.957031 L 379.277344 172.15625 L 380.179688 172.15625 L 380.179688 171.253906 L 385.585938 171.253906 L 385.585938 170.351562 L 387.386719 170.351562 L 387.386719 172.15625 L 388.289062 172.15625 L 388.289062 173.054688 L 392.792969 173.054688 L 392.792969 170.351562 L 391.890625 170.351562 L 391.890625 168.550781 L 390.992188 168.550781 L 390.992188 165.84375 L 390.089844 165.84375 L 390.089844 164.042969 L 389.1875 164.042969 L 389.1875 161.339844 L 388.289062 161.339844 L 388.289062 159.535156 L 387.386719 159.535156 L 387.386719 157.734375 L 386.488281 157.734375 L 386.488281 155.03125 L 385.585938 155.03125 L 385.585938 153.226562 L 384.683594 153.226562 L 384.683594 151.425781 Z M 355.855469 153.226562 L 355.855469 154.128906 L 353.152344 154.128906 L 353.152344 161.339844 L 354.054688 161.339844 L 354.054688 171.253906 L 354.953125 171.253906 L 354.953125 175.761719 L 359.460938 175.761719 L 359.460938 170.351562 L 362.164062 170.351562 L 362.164062 172.15625 L 363.0625 172.15625 L 363.0625 173.054688 L 363.964844 173.054688 L 363.964844 173.957031 L 364.863281 173.957031 L 364.863281 174.859375 L 370.269531 174.859375 L 370.269531 173.054688 L 369.371094 173.054688 L 369.371094 172.15625 L 368.46875 172.15625 L 368.46875 170.351562 L 367.566406 170.351562 L 367.566406 169.449219 L 366.667969 169.449219 L 366.667969 168.550781 L 365.765625 168.550781 L 365.765625 166.746094 L 366.667969 166.746094 L 366.667969 164.945312 L 367.566406 164.945312 L 367.566406 158.632812 L 366.667969 158.632812 L 366.667969 156.832031 L 365.765625 156.832031 L 365.765625 155.929688 L 364.863281 155.929688 L 364.863281 155.03125 L 363.0625 155.03125 L 363.0625 154.128906 L 360.359375 154.128906 L 360.359375 153.226562 Z M 345.945312 154.128906 L 345.945312 155.03125 L 336.035156 155.03125 L 336.035156 155.929688 L 335.136719 155.929688 L 335.136719 159.535156 L 336.035156 159.535156 L 336.035156 160.4375 L 339.640625 160.4375 L 339.640625 163.140625 L 340.539062 163.140625 L 340.539062 172.15625 L 341.441406 172.15625 L 341.441406 177.5625 L 345.945312 177.5625 L 345.945312 166.746094 L 345.046875 166.746094 L 345.046875 159.535156 L 348.648438 159.535156 L 348.648438 154.128906 Z M 323.421875 155.929688 L 323.421875 156.832031 L 320.722656 156.832031 L 320.722656 157.734375 L 319.820312 157.734375 L 319.820312 158.632812 L 318.917969 158.632812 L 318.917969 161.339844 L 318.019531 161.339844 L 318.019531 164.042969 L 318.917969 164.042969 L 318.917969 165.84375 L 319.820312 165.84375 L 319.820312 167.648438 L 321.621094 167.648438 L 321.621094 168.550781 L 322.523438 168.550781 L 322.523438 169.449219 L 326.125 169.449219 L 326.125 170.351562 L 327.929688 170.351562 L 327.929688 173.957031 L 324.324219 173.957031 L 324.324219 173.054688 L 323.421875 173.054688 L 323.421875 172.15625 L 318.917969 172.15625 L 318.917969 175.761719 L 319.820312 175.761719 L 319.820312 176.660156 L 320.722656 176.660156 L 320.722656 177.5625 L 321.621094 177.5625 L 321.621094 178.464844 L 323.421875 178.464844 L 323.421875 179.367188 L 328.828125 179.367188 L 328.828125 178.464844 L 329.730469 178.464844 L 329.730469 177.5625 L 331.53125 177.5625 L 331.53125 175.761719 L 332.433594 175.761719 L 332.433594 174.859375 L 333.332031 174.859375 L 333.332031 169.449219 L 332.433594 169.449219 L 332.433594 167.648438 L 331.53125 167.648438 L 331.53125 166.746094 L 330.628906 166.746094 L 330.628906 165.84375 L 328.828125 165.84375 L 328.828125 164.945312 L 326.125 164.945312 L 326.125 164.042969 L 323.421875 164.042969 L 323.421875 161.339844 L 326.125 161.339844 L 326.125 162.238281 L 331.53125 162.238281 L 331.53125 159.535156 L 330.628906 159.535156 L 330.628906 158.632812 L 329.730469 158.632812 L 329.730469 157.734375 L 328.828125 157.734375 L 328.828125 156.832031 L 327.027344 156.832031 L 327.027344 155.929688 Z M 308.109375 157.734375 L 308.109375 165.84375 L 309.007812 165.84375 L 309.007812 175.761719 L 309.910156 175.761719 L 309.910156 180.265625 L 314.414062 180.265625 L 314.414062 168.550781 L 313.511719 168.550781 L 313.511719 159.535156 L 312.613281 159.535156 L 312.613281 157.734375 Z M 291.890625 159.535156 L 291.890625 160.4375 L 290.089844 160.4375 L 290.089844 161.339844 L 288.289062 161.339844 L 288.289062 162.238281 L 287.386719 162.238281 L 287.386719 163.140625 L 286.488281 163.140625 L 286.488281 164.945312 L 285.585938 164.945312 L 285.585938 166.746094 L 284.683594 166.746094 L 284.683594 173.957031 L 285.585938 173.957031 L 285.585938 175.761719 L 286.488281 175.761719 L 286.488281 177.5625 L 287.386719 177.5625 L 287.386719 178.464844 L 288.289062 178.464844 L 288.289062 179.367188 L 289.1875 179.367188 L 289.1875 180.265625 L 290.992188 180.265625 L 290.992188 181.167969 L 294.59375 181.167969 L 294.59375 182.070312 L 297.296875 182.070312 L 297.296875 181.167969 L 305.40625 181.167969 L 305.40625 175.761719 L 304.503906 175.761719 L 304.503906 168.550781 L 299.097656 168.550781 L 299.097656 169.449219 L 294.59375 169.449219 L 294.59375 172.15625 L 295.496094 172.15625 L 295.496094 173.957031 L 300 173.957031 L 300 175.761719 L 298.199219 175.761719 L 298.199219 176.660156 L 293.695312 176.660156 L 293.695312 175.761719 L 291.890625 175.761719 L 291.890625 174.859375 L 290.992188 174.859375 L 290.992188 173.957031 L 290.089844 173.957031 L 290.089844 167.648438 L 290.992188 167.648438 L 290.992188 165.84375 L 292.792969 165.84375 L 292.792969 164.945312 L 294.59375 164.945312 L 294.59375 164.042969 L 297.296875 164.042969 L 297.296875 164.945312 L 299.097656 164.945312 L 299.097656 165.84375 L 300 165.84375 L 300 164.945312 L 300.902344 164.945312 L 300.902344 164.042969 L 301.800781 164.042969 L 301.800781 162.238281 L 302.703125 162.238281 L 302.703125 161.339844 L 301.800781 161.339844 L 301.800781 160.4375 L 300 160.4375 L 300 159.535156 Z M 277.476562 160.4375 L 277.476562 161.339844 L 268.46875 161.339844 L 268.46875 162.238281 L 266.667969 162.238281 L 266.667969 166.746094 L 267.566406 166.746094 L 267.566406 178.464844 L 268.46875 178.464844 L 268.46875 183.871094 L 277.476562 183.871094 L 277.476562 182.96875 L 282.882812 182.96875 L 282.882812 178.464844 L 281.980469 178.464844 L 281.980469 177.5625 L 281.082031 177.5625 L 281.082031 178.464844 L 272.972656 178.464844 L 272.972656 174.859375 L 279.277344 174.859375 L 279.277344 173.957031 L 280.179688 173.957031 L 280.179688 170.351562 L 279.277344 170.351562 L 279.277344 169.449219 L 272.070312 169.449219 L 272.070312 166.746094 L 273.875 166.746094 L 273.875 165.84375 L 281.082031 165.84375 L 281.082031 160.4375 Z M 248.648438 163.140625 L 248.648438 164.042969 L 246.847656 164.042969 L 246.847656 173.957031 L 247.746094 173.957031 L 247.746094 182.96875 L 248.648438 182.96875 L 248.648438 185.675781 L 253.152344 185.675781 L 253.152344 180.265625 L 255.855469 180.265625 L 255.855469 182.070312 L 256.757812 182.070312 L 256.757812 182.96875 L 257.65625 182.96875 L 257.65625 183.871094 L 258.558594 183.871094 L 258.558594 184.773438 L 263.964844 184.773438 L 263.964844 182.96875 L 263.0625 182.96875 L 263.0625 182.070312 L 262.164062 182.070312 L 262.164062 180.265625 L 261.261719 180.265625 L 261.261719 179.367188 L 260.359375 179.367188 L 260.359375 178.464844 L 259.460938 178.464844 L 259.460938 175.761719 L 260.359375 175.761719 L 260.359375 174.859375 L 261.261719 174.859375 L 261.261719 168.550781 L 260.359375 168.550781 L 260.359375 166.746094 L 259.460938 166.746094 L 259.460938 165.84375 L 258.558594 165.84375 L 258.558594 164.945312 L 256.757812 164.945312 L 256.757812 164.042969 L 254.953125 164.042969 L 254.953125 163.140625 Z M 227.929688 164.945312 L 227.929688 165.84375 L 220.722656 165.84375 L 220.722656 174.859375 L 221.621094 174.859375 L 221.621094 182.96875 L 222.523438 182.96875 L 222.523438 188.378906 L 227.929688 188.378906 L 227.929688 187.476562 L 236.035156 187.476562 L 236.035156 186.574219 L 236.9375 186.574219 L 236.9375 183.871094 L 236.035156 183.871094 L 236.035156 182.070312 L 231.53125 182.070312 L 231.53125 182.96875 L 227.027344 182.96875 L 227.027344 179.367188 L 230.628906 179.367188 L 230.628906 178.464844 L 234.234375 178.464844 L 234.234375 173.957031 L 226.125 173.957031 L 226.125 171.253906 L 227.027344 171.253906 L 227.027344 170.351562 L 234.234375 170.351562 L 234.234375 169.449219 L 235.136719 169.449219 L 235.136719 164.945312 Z M 211.710938 166.746094 L 211.710938 167.648438 L 210.8125 167.648438 L 210.8125 168.550781 L 211.710938 168.550781 L 211.710938 178.464844 L 210.8125 178.464844 L 210.8125 177.5625 L 209.910156 177.5625 L 209.910156 176.660156 L 209.007812 176.660156 L 209.007812 174.859375 L 208.109375 174.859375 L 208.109375 173.957031 L 207.207031 173.957031 L 207.207031 172.15625 L 206.304688 172.15625 L 206.304688 171.253906 L 205.40625 171.253906 L 205.40625 169.449219 L 204.503906 169.449219 L 204.503906 168.550781 L 203.605469 168.550781 L 203.605469 167.648438 L 200 167.648438 L 200 168.550781 L 198.199219 168.550781 L 198.199219 173.054688 L 199.097656 173.054688 L 199.097656 182.96875 L 200 182.96875 L 200 190.179688 L 205.40625 190.179688 L 205.40625 186.574219 L 204.503906 186.574219 L 204.503906 178.464844 L 205.40625 178.464844 L 205.40625 179.367188 L 206.304688 179.367188 L 206.304688 181.167969 L 207.207031 181.167969 L 207.207031 182.070312 L 208.109375 182.070312 L 208.109375 183.871094 L 209.007812 183.871094 L 209.007812 184.773438 L 209.910156 184.773438 L 209.910156 185.675781 L 210.8125 185.675781 L 210.8125 187.476562 L 211.710938 187.476562 L 211.710938 188.378906 L 212.613281 188.378906 L 212.613281 189.28125 L 218.019531 189.28125 L 218.019531 182.96875 L 217.117188 182.96875 L 217.117188 173.054688 L 216.214844 173.054688 L 216.214844 166.746094 Z M 190.992188 168.550781 L 190.992188 169.449219 L 188.289062 169.449219 L 188.289062 175.761719 L 189.1875 175.761719 L 189.1875 185.675781 L 190.089844 185.675781 L 190.089844 191.082031 L 195.496094 191.082031 L 195.496094 188.378906 L 194.59375 188.378906 L 194.59375 179.367188 L 193.695312 179.367188 L 193.695312 170.351562 L 192.792969 170.351562 L 192.792969 168.550781 Z M 171.171875 170.351562 L 171.171875 178.464844 L 172.070312 178.464844 L 172.070312 188.378906 L 172.972656 188.378906 L 172.972656 192.886719 L 180.179688 192.886719 L 180.179688 191.984375 L 185.585938 191.984375 L 185.585938 191.082031 L 186.488281 191.082031 L 186.488281 190.179688 L 185.585938 190.179688 L 185.585938 186.574219 L 182.882812 186.574219 L 182.882812 187.476562 L 177.476562 187.476562 L 177.476562 182.070312 L 176.578125 182.070312 L 176.578125 172.15625 L 175.675781 172.15625 L 175.675781 170.351562 Z M 161.261719 171.253906 L 161.261719 178.464844 L 162.164062 178.464844 L 162.164062 183.871094 L 161.261719 183.871094 L 161.261719 182.96875 L 160.359375 182.96875 L 160.359375 181.167969 L 159.460938 181.167969 L 159.460938 180.265625 L 158.558594 180.265625 L 158.558594 178.464844 L 157.65625 178.464844 L 157.65625 177.5625 L 156.757812 177.5625 L 156.757812 175.761719 L 155.855469 175.761719 L 155.855469 174.859375 L 154.953125 174.859375 L 154.953125 173.054688 L 154.054688 173.054688 L 154.054688 172.15625 L 151.351562 172.15625 L 151.351562 173.054688 L 148.648438 173.054688 L 148.648438 182.070312 L 149.550781 182.070312 L 149.550781 191.082031 L 150.449219 191.082031 L 150.449219 194.6875 L 154.953125 194.6875 L 154.953125 184.773438 L 154.054688 184.773438 L 154.054688 182.96875 L 155.855469 182.96875 L 155.855469 184.773438 L 156.757812 184.773438 L 156.757812 185.675781 L 157.65625 185.675781 L 157.65625 187.476562 L 158.558594 187.476562 L 158.558594 188.378906 L 159.460938 188.378906 L 159.460938 190.179688 L 160.359375 190.179688 L 160.359375 191.082031 L 161.261719 191.082031 L 161.261719 192.886719 L 162.164062 192.886719 L 162.164062 193.785156 L 167.566406 193.785156 L 167.566406 180.265625 L 166.667969 180.265625 L 166.667969 172.15625 L 165.765625 172.15625 L 165.765625 171.253906 Z M 132.433594 173.957031 L 132.433594 174.859375 L 129.730469 174.859375 L 129.730469 175.761719 L 127.929688 175.761719 L 127.929688 176.660156 L 127.027344 176.660156 L 127.027344 177.5625 L 126.125 177.5625 L 126.125 178.464844 L 125.226562 178.464844 L 125.226562 180.265625 L 124.324219 180.265625 L 124.324219 182.070312 L 123.421875 182.070312 L 123.421875 188.378906 L 124.324219 188.378906 L 124.324219 190.179688 L 125.226562 190.179688 L 125.226562 191.984375 L 126.125 191.984375 L 126.125 192.886719 L 127.027344 192.886719 L 127.027344 193.785156 L 127.929688 193.785156 L 127.929688 194.6875 L 129.730469 194.6875 L 129.730469 195.589844 L 131.53125 195.589844 L 131.53125 196.492188 L 137.835938 196.492188 L 137.835938 195.589844 L 139.640625 195.589844 L 139.640625 194.6875 L 141.441406 194.6875 L 141.441406 193.785156 L 142.34375 193.785156 L 142.34375 192.886719 L 143.242188 192.886719 L 143.242188 191.984375 L 144.144531 191.984375 L 144.144531 190.179688 L 145.046875 190.179688 L 145.046875 188.378906 L 145.945312 188.378906 L 145.945312 182.96875 L 145.046875 182.96875 L 145.046875 180.265625 L 144.144531 180.265625 L 144.144531 178.464844 L 143.242188 178.464844 L 143.242188 177.5625 L 142.34375 177.5625 L 142.34375 176.660156 L 141.441406 176.660156 L 141.441406 175.761719 L 139.640625 175.761719 L 139.640625 174.859375 L 137.835938 174.859375 L 137.835938 173.957031 Z M 132.433594 173.957031 "/>
<path style=" stroke:none;fill-rule:nonzero;fill:rgb(1.960784%,1.960784%,1.960784%);fill-opacity:1;" d="M 430.628906 151.425781 L 434.234375 151.425781 L 434.234375 152.324219 L 436.035156 152.324219 L 436.035156 153.226562 L 436.9375 153.226562 L 436.9375 154.128906 L 437.835938 154.128906 L 437.835938 155.929688 L 438.738281 155.929688 L 438.738281 159.535156 L 437.835938 159.535156 L 437.835938 161.339844 L 436.9375 161.339844 L 436.9375 162.238281 L 436.035156 162.238281 L 436.035156 163.140625 L 434.234375 163.140625 L 434.234375 164.042969 L 430.628906 164.042969 L 430.628906 163.140625 L 428.828125 163.140625 L 428.828125 162.238281 L 427.929688 162.238281 L 427.929688 161.339844 L 427.027344 161.339844 L 427.027344 159.535156 L 426.125 159.535156 L 426.125 155.929688 L 427.027344 155.929688 L 427.027344 154.128906 L 427.929688 154.128906 L 427.929688 153.226562 L 428.828125 153.226562 L 428.828125 152.324219 L 430.628906 152.324219 Z M 430.628906 151.425781 "/>
<path style=" stroke:none;fill-rule:nonzero;fill:rgb(1.960784%,1.960784%,1.960784%);fill-opacity:1;" d="M 358.558594 158.632812 L 361.261719 158.632812 L 361.261719 159.535156 L 362.164062 159.535156 L 362.164062 160.4375 L 363.0625 160.4375 L 363.0625 162.238281 L 362.164062 162.238281 L 362.164062 164.042969 L 360.359375 164.042969 L 360.359375 164.945312 L 359.460938 164.945312 L 359.460938 164.042969 L 358.558594 164.042969 Z M 358.558594 158.632812 "/>
<path style=" stroke:none;fill-rule:nonzero;fill:rgb(1.960784%,1.960784%,1.960784%);fill-opacity:1;" d="M 252.253906 168.550781 L 254.054688 168.550781 L 254.054688 169.449219 L 255.855469 169.449219 L 255.855469 171.253906 L 256.757812 171.253906 L 256.757812 172.15625 L 255.855469 172.15625 L 255.855469 173.054688 L 254.953125 173.054688 L 254.953125 173.957031 L 254.054688 173.957031 L 254.054688 174.859375 L 252.253906 174.859375 Z M 252.253906 168.550781 "/>
<path style=" stroke:none;fill-rule:nonzero;fill:rgb(1.960784%,1.960784%,1.960784%);fill-opacity:1;" d="M 132.433594 179.367188 L 136.9375 179.367188 L 136.9375 180.265625 L 138.738281 180.265625 L 138.738281 181.167969 L 139.640625 181.167969 L 139.640625 182.96875 L 140.539062 182.96875 L 140.539062 188.378906 L 139.640625 188.378906 L 139.640625 189.28125 L 138.738281 189.28125 L 138.738281 190.179688 L 137.835938 190.179688 L 137.835938 191.082031 L 131.53125 191.082031 L 131.53125 190.179688 L 130.628906 190.179688 L 130.628906 189.28125 L 129.730469 189.28125 L 129.730469 188.378906 L 128.828125 188.378906 L 128.828125 182.070312 L 129.730469 182.070312 L 129.730469 181.167969 L 130.628906 181.167969 L 130.628906 180.265625 L 132.433594 180.265625 Z M 132.433594 179.367188 "/>
</g>
</svg>
